# xmcd
#
# Track frame offsets:
#	150
#	25522
#	39839
#	58716
#	77307
#	99650
#	119004
#	144450
#	159566
#	180650
#
# Disc length: 2551 seconds
#
# Revision: 0
# Processed by: cddbd v1.5.2PL0 Copyright (c) Steve Scherf et al.
# Submitted via: EZCDAudioConverter 1.3.3.1
#
DISCID=7509f50a
DTITLE=Leishmaniasis - Necrocanibalismo
DYEAR=1900
DGENRE=Death Metal/Grindcore
TTITLE0=Entrañas Putrefactas
TTITLE1=Degradacion Corrosiva E Infecciosa
TTITLE2=Podredumbre Senil
TTITLE3=Organos Fermentados
TTITLE4=Necromasturbacion
TTITLE5=Extasis De Purulencia
TTITLE6=Himen Imperforado (Condiloma Acuminado)
TTITLE7=Transtornos Diversos
TTITLE8=Sialometaplasia Necrotizante
TTITLE9=Mordiendo Visceras
EXTD=
EXTT0=
EXTT1=
EXTT2=
EXTT3=
EXTT4=
EXTT5=
EXTT6=
EXTT7=
EXTT8=
EXTT9=
PLAYORDER=
